<?xml version="1.0" standalone="no"?>
<!DOCTYPE svg PUBLIC "-//W3C//DTD SVG 20010904//EN"
 "http://www.w3.org/TR/2001/REC-SVG-20010904/DTD/svg10.dtd">
<svg version="1.0" xmlns="http://www.w3.org/2000/svg"
 width="173.000000pt" height="40.000000pt" viewBox="0 0 173.000000 40.000000"
 preserveAspectRatio="xMidYMid meet">
<metadata>
Created by potrace 1.10, written by Peter Selinger 2001-2011
</metadata>
<g transform="translate(0.000000,40.000000) scale(0.100000,-0.100000)"
fill="#000000" stroke="none">
<path d="M102 363 c-7 -3 -19 -18 -28 -34 -22 -43 -2 -77 64 -112 60 -33 80
-63 63 -96 -7 -11 -18 -21 -26 -21 -8 0 -15 -4 -15 -10 0 -13 16 -13 43 2 32
17 46 39 47 74 0 36 -20 57 -88 94 -36 19 -48 31 -50 53 -2 18 2 29 12 33 9 3
16 10 16 15 0 10 -17 11 -38 2z"/>
<path d="M168 353 c13 -9 30 -32 38 -51 17 -43 27 -36 26 18 -1 55 0 54 -15
42 -8 -7 -18 -7 -27 -2 -27 17 -47 10 -22 -7z"/>
<path d="M286 361 c-3 -5 1 -11 9 -15 12 -4 15 -28 15 -126 0 -105 -2 -120
-17 -120 -9 0 -13 -3 -10 -7 9 -9 107 -10 107 -2 0 4 -7 9 -15 13 -22 8 -22
234 0 242 8 4 15 10 15 15 0 12 -97 12 -104 0z"/>
<path d="M435 360 c-3 -4 2 -10 10 -14 12 -4 15 -28 15 -126 0 -105 -2 -120
-17 -120 -40 0 1 -12 46 -14 50 -1 66 6 36 18 -22 8 -22 234 0 242 8 4 15 10
15 14 0 11 -98 11 -105 0z"/>
<path d="M550 359 c0 -5 4 -9 9 -9 5 0 28 -33 50 -74 32 -56 41 -84 41 -120 0
-39 -4 -48 -22 -56 -27 -11 -28 -10 45 -13 55 -2 73 5 42 17 -10 4 -15 20 -15
51 0 32 -10 66 -35 115 -30 59 -33 71 -20 76 31 12 13 23 -40 23 -30 0 -55 -5
-55 -10z"/>
<path d="M710 364 c0 -4 7 -12 16 -18 14 -11 13 -17 -7 -59 -13 -26 -19 -50
-15 -54 5 -5 10 -3 13 2 2 6 16 32 31 60 49 90 79 74 181 -94 69 -115 101
-146 101 -100 0 11 -34 76 -76 145 l-77 124 -83 0 c-46 0 -84 -3 -84 -6z"/>
<path d="M970 361 c0 -5 9 -13 20 -16 18 -6 20 -15 20 -83 0 -42 5 -84 10 -92
7 -10 10 14 10 78 0 73 3 94 15 98 30 12 14 24 -30 24 -25 0 -45 -4 -45 -9z"/>
<path d="M830 217 c0 -86 -3 -109 -15 -113 -38 -15 5 -23 74 -15 3 1 -3 7 -13
14 -14 10 -18 31 -21 106 -4 137 -25 144 -25 8z"/>
<path d="M380 230 c0 -5 16 -10 35 -10 19 0 35 5 35 10 0 6 -16 10 -35 10 -19
0 -35 -4 -35 -10z"/>
<path d="M60 136 c0 -44 12 -66 25 -46 4 7 12 7 25 0 24 -13 40 -13 40 0 0 6
-7 10 -15 10 -8 0 -24 18 -35 40 -27 52 -40 51 -40 -4z"/>
<path d="M40 35 c0 -20 7 -20 515 -20 508 0 515 0 515 20 0 20 -7 20 -515 20
-508 0 -515 0 -515 -20z"/>
</g>
</svg>
